<?xml version="1.0" encoding="utf-8"?>
<!-- Generator: Adobe Illustrator 26.5.0, SVG Export Plug-In . SVG Version: 6.00 Build 0)  -->
<svg version="1.1" id="Livello_1" xmlns="http://www.w3.org/2000/svg" xmlns:xlink="http://www.w3.org/1999/xlink" x="0px" y="0px"
	 viewBox="0 0 800 800" style="enable-background:new 0 0 800 800;" xml:space="preserve">
<style type="text/css">
	.st0{fill:none;}
	.st1{fill:#FFF92C;}
</style>
<g id="Layer_2">
	<g id="invisible_box">
		<rect class="st0" width="800" height="800"/>
	</g>
	<g id="Medical">
		<g>
			<path class="st1" d="M533.3,166.7H350V100h83.3c18.4,0,33.3-14.9,33.3-33.3s-14.9-33.3-33.3-33.3H200
				c-18.4,0-33.3,14.9-33.3,33.3S181.6,100,200,100h83.3v66.7H150c-26.7-0.9-49.1,19.9-50,46.6c0,1.1,0,2.3,0,3.4V350
				c-0.9,26.7,19.9,49.1,46.6,50c1.1,0,2.3,0,3.4,0h316.7v116.7c-0.9,26.7,19.9,49.1,46.6,50c1.1,0,2.3,0,3.4,0H650
				c26.7,0.9,49.1-19.9,50-46.6c0-1.1,0-2.3,0-3.4V333.3C700,241.3,625.4,166.7,533.3,166.7z M633.3,500h-100V383.3
				c0.9-26.7-19.9-49.1-46.6-50c-1.1,0-2.3,0-3.4,0H166.7v-100h366.7c55.2,0,100,44.8,100,100V500z"/>
			<path class="st1" d="M583.3,600l-50,56.7c-24,26.7-21.8,67.8,4.9,91.8c0.6,0.5,1.2,1,1.8,1.5c24.9,21.3,61.7,21.3,86.7,0
				c27.5-23,31.2-64,8.2-91.6c-0.5-0.6-1-1.2-1.5-1.8L583.3,600z"/>
		</g>
	</g>
</g>
</svg>
