<?xml version="1.0" encoding="utf-8"?>
<!-- Generator: Adobe Illustrator 26.5.0, SVG Export Plug-In . SVG Version: 6.00 Build 0)  -->
<svg version="1.1" id="Livello_1" xmlns="http://www.w3.org/2000/svg" xmlns:xlink="http://www.w3.org/1999/xlink" x="0px" y="0px"
	 viewBox="0 0 800 800" style="enable-background:new 0 0 800 800;" xml:space="preserve">
<style type="text/css">
	.st0{fill:#FFF92C;}
</style>
<path class="st0" d="M399.7,32c-2.5,0-4.9,0.7-7.2,1.8l-336,176C51.3,212.6,48,218,48,224v48c0,8.8,7.2,16,16,16h16v22.4
	c0,19.4,13.8,35.9,32,40.3v289.4H65.6l2.7,0.2C48.5,637.1,32,654,32,672.5v44c0,18.9,14.9,35.5,33.6,35.5h667.2
	c18.6,0,33.6-15.4,33.6-33.9v-44c0-18.5-14.9-33.9-33.6-33.9H688V350.8c18.2-4.4,32-21,32-40.3V288h16c8.8,0,16-7.2,16-16v-48
	c0-6-3.3-11.4-8.6-14.2l-336-176C405.1,32.6,402.4,31.9,399.7,32z M399.9,91.8l294.8,154.4v20.5h-12.3c-1.6-0.3-3.2-0.3-4.8,0H534.9
	c-0.8-0.2-1.7-0.2-2.5-0.2c-0.7,0-1.4,0.1-2.1,0.2h-54.2c-1.6-0.3-3.2-0.3-4.8,0H328.5c-0.8-0.2-1.7-0.2-2.5-0.2
	c-0.7,0-1.4,0.1-2.1,0.2h-54.2c-1.6-0.3-3.2-0.3-4.8,0H122.2c-0.8-0.2-1.7-0.2-2.5-0.2c-0.7,0-1.4,0.1-2.1,0.2h-12.4v-20.5
	L399.9,91.8z M134.6,296.3h117.9v20.6c0,5.6-3.2,8.8-8.8,8.8H143.4c-5.6,0-8.8-3.2-8.8-8.8V296.3z M282,296.3h29.5v20.6
	c0,17.9,12.7,33.1,29.5,37.1v266.6h-88.4V354.1c16.8-4.1,29.5-19.3,29.5-37.1V296.3z M341,296.3h117.9v20.6c0,5.6-3.2,8.8-8.8,8.8
	H349.8c-5.6,0-8.8-3.2-8.8-8.8V296.3z M488.4,296.3h29.5v20.6c0,17.9,12.7,33.1,29.5,37.1v266.6h-88.4V354.1
	c16.8-4.1,29.5-19.3,29.5-37.1V296.3z M547.3,296.3h117.9v20.6c0,5.6-3.2,8.8-8.8,8.8H556.2c-5.6,0-8.8-3.2-8.8-8.8V296.3z
	 M164.1,355.2h59v265.3h-59V355.2z M370.4,355.2h59v265.3h-59V355.2z M576.8,355.2h59v265.3h-59V355.2z M90.2,650.1
	c0.6,0.1,1.1,0.1,1.7,0.1h614.7c0.6,0,1.5,0.8,1.5,1.8v40.5c0,0.9-0.9,1.8-1.5,1.8H91.9c-0.6,0-1.5,0.4-1.5-3.2v-40.5
	C90.4,650.1,90.3,650.1,90.2,650.1z"/>
</svg>
