<?xml version="1.0" encoding="utf-8"?>
<!-- Generator: Adobe Illustrator 26.5.0, SVG Export Plug-In . SVG Version: 6.00 Build 0)  -->
<svg version="1.1" id="Livello_1" xmlns="http://www.w3.org/2000/svg" xmlns:xlink="http://www.w3.org/1999/xlink" x="0px" y="0px"
	 viewBox="0 0 800 800" style="enable-background:new 0 0 800 800;" xml:space="preserve">
<style type="text/css">
	.st0{fill:none;stroke:#FFF92C;stroke-width:80;stroke-linecap:round;stroke-linejoin:round;stroke-miterlimit:160;}
</style>
<g id="wave" transform="translate(-2 -4)">
	<path id="primary" class="st0" d="M762,364c-90,0-90,80-180,80s-90-80-180-80s-90,80-180,80s-90-80-180-80"/>
	<path id="primary-2" class="st0" d="M42,124c90,0,90,80,180,80s90-80,180-80s90.4,80,180.4,80S672,124,762,124"/>
	<path id="primary-3" class="st0" d="M762,604c-90,0-90,80-180,80s-90-80-180-80s-90,80-180,80s-90-80-180-80"/>
</g>
</svg>
