<?xml version="1.0" encoding="utf-8"?>
<!-- Generator: Adobe Illustrator 26.5.0, SVG Export Plug-In . SVG Version: 6.00 Build 0)  -->
<svg version="1.1" id="Livello_1" xmlns="http://www.w3.org/2000/svg" xmlns:xlink="http://www.w3.org/1999/xlink" x="0px" y="0px"
	 viewBox="0 0 800 800" style="enable-background:new 0 0 800 800;" xml:space="preserve">
<style type="text/css">
	.st0{fill-rule:evenodd;clip-rule:evenodd;fill:#FFF92C;}
</style>
<path class="st0" d="M400,66.7c18.4,0,33.3,14.9,33.3,33.3v33.3h33.3c18.4,0,33.3,14.9,33.3,33.3S485.1,200,466.7,200h-33.3v30.9
	l266.9,157c15.9,9.3,21.2,29.8,11.8,45.6c-9.3,15.8-29.6,21.1-45.4,12v221.1c0,36.8-29.8,66.7-66.7,66.7H500h-33.3H333.3H300H200
	c-36.8,0-66.7-29.8-66.7-66.7V445.5c-15.8,9.1-36.1,3.8-45.4-12c-9.3-15.9-4-36.3,11.8-45.6l266.9-157V200h-33.3
	c-18.4,0-33.3-14.9-33.3-33.3s14.9-33.3,33.3-33.3h33.3V100C366.7,81.6,381.6,66.7,400,66.7z M366.7,666.7h66.7v-100
	c0-18.4-14.9-33.3-33.3-33.3c-18.4,0-33.3,14.9-33.3,33.3V666.7z M500,666.7v-100c0-55.2-44.8-100-100-100s-100,44.8-100,100v100
	H200V406.3l200-117.6l200,117.6v260.3H500z"/>
</svg>
