<?xml version="1.0" encoding="utf-8"?>
<!-- Generator: Adobe Illustrator 26.5.0, SVG Export Plug-In . SVG Version: 6.00 Build 0)  -->
<svg version="1.1" id="Capa_1" xmlns="http://www.w3.org/2000/svg" xmlns:xlink="http://www.w3.org/1999/xlink" x="0px" y="0px"
	 viewBox="0 0 800 800" style="enable-background:new 0 0 800 800;" xml:space="preserve">
<style type="text/css">
	.st0{fill:#FFF92C;stroke:#FFF92C;stroke-width:16;stroke-miterlimit:10;}
	.st1{fill:#FFF92C;}
</style>
<g>
	<g>
		<path class="st0" d="M789.2,361.2c-1.8-41-18.6-79.4-47.6-108.4c-30.9-30.9-71.9-47.9-115.6-47.9c-43.7,0-84.7,17-115.6,47.9
			c-10.9,11-25.5,17-41,17c-15.5,0-30.1-6-41-17c-11.8-11.8-17.9-28-16.9-44.6c0.1-1.2,0-2.3-0.3-3.4c0.1-2,0.2-4,0.2-5.9
			c0-0.4,0-0.8,0-1.3c0-0.5,0-0.9-0.1-1.3c-1.5-41.5-18.4-80.4-47.7-109.6c-30.8-30.8-71.8-47.8-115.4-47.8
			c-34,0-66.7,10.3-94.4,29.9c-8.2,5.8-15.2,11.7-21.4,17.9c-2.3,2.3-4.4,4.7-6.5,7.1l-0.7,0.8c-0.4,0.3-0.8,0.7-1.1,1
			C-28,247.5-28,495,124.1,647.1c73.7,73.7,171.6,114.3,275.8,114.3c104.2,0,202.2-40.6,275.8-114.3
			C751,571.8,791.6,471.7,790,365.3C789.9,363.9,789.6,362.5,789.2,361.2z M656.1,627.4c-68.5,68.4-159.4,106.1-256.2,106.1
			c-96.8,0-187.8-37.7-256.2-106.1C3,486.8,2.4,258.3,141.8,116.8c1-0.7,1.9-1.4,2.7-2.3c0.5-0.5,0.9-1.1,1.1-1.4l1.2-1.3
			c1.7-1.9,3.3-3.8,5.1-5.6c5.1-5.1,10.9-10,17.8-14.8c23-16.3,50.1-24.8,78.4-24.8c36.2,0,70.2,14.1,95.8,39.7
			c24.5,24.5,38.6,57.2,39.6,92.1c0,0.1,0,0.3,0,0.4c0,1.5-0.1,3-0.2,4.4l-0.2,3.9c0,1.1,0.1,2.2,0.3,3.3
			c-0.4,23.2,8.6,45.6,25.1,62.1c16.2,16.2,37.7,25.1,60.6,25.1c22.9,0,44.4-8.9,60.6-25.1c25.7-25.7,59.8-39.8,96-39.8
			c36.3,0,70.4,14.1,96,39.8c24.8,24.8,38.9,57.8,39.6,93.1c0,1.3,0.3,2.5,0.7,3.8C762.8,466.7,725.2,558.3,656.1,627.4z"/>
		<path class="st1" d="M647.1,338.8c-16.4,0-31.9,6.4-43.5,18c-11.6,11.6-18.1,27.1-18.1,43.5c0,16.5,6.4,31.9,18.1,43.5
			c11.6,11.6,27.1,18,43.5,18c16.4,0,31.9-6.4,43.6-18.1c24-24,24-63.1,0-87.1C679,345.2,663.5,338.8,647.1,338.8z M671,424.3
			c-12.8,12.8-35.1,12.8-47.9,0c-6.4-6.4-9.9-14.9-9.9-23.9c0-9,3.5-17.5,9.9-23.9c6.4-6.4,14.9-9.9,23.9-9.9c9,0,17.6,3.5,24,9.9
			C684.2,389.6,684.2,411.1,671,424.3z"/>
		<path class="st1" d="M560.2,493.1c-16.5,0-31.9,6.4-43.5,18c-11.6,11.6-18.1,27.1-18.1,43.5c0,16.4,6.4,31.9,18.1,43.5
			c11.6,11.6,27.1,18,43.5,18c16.4,0,31.9-6.4,43.5-18c11.6-11.6,18-27.1,18-43.5c0-16.5-6.4-31.9-18-43.5
			C592.1,499.6,576.6,493.1,560.2,493.1z M584.1,578.6c-12.8,12.8-35.1,12.8-47.8,0c-6.4-6.4-9.9-14.9-9.9-23.9
			c0-9,3.5-17.5,9.9-23.9c6.4-6.4,14.9-9.9,23.9-9.9s17.5,3.5,23.9,9.9c6.4,6.4,9.9,14.9,9.9,23.9
			C594,563.8,590.5,572.3,584.1,578.6z"/>
		<path class="st1" d="M406.3,579.6c-16.4,0-31.9,6.4-43.5,18c-24,24-24,63.1,0,87.1c11.6,11.6,27.1,18,43.5,18s31.9-6.4,43.6-18
			c24-24,24-63.1,0-87.1C438.2,586,422.7,579.6,406.3,579.6z M430.2,665.1c-12.8,12.8-35.1,12.8-47.9,0c-13.2-13.2-13.2-34.7,0-47.9
			c6.4-6.4,14.9-9.9,23.9-9.9c9,0,17.5,3.5,23.9,9.9C443.4,630.4,443.4,651.9,430.2,665.1z"/>
		<path class="st1" d="M253.5,494.3c-16.4,0-31.9,6.4-43.5,18c-11.6,11.6-18.1,27.1-18.1,43.5s6.4,31.9,18.1,43.5
			c11.6,11.6,27.1,18,43.5,18s31.9-6.4,43.5-18c11.6-11.6,18-27.1,18-43.5s-6.4-31.9-18-43.5C285.4,500.7,269.9,494.3,253.5,494.3z
			 M277.4,579.8c-12.8,12.8-35.1,12.8-47.8,0c-6.4-6.4-9.9-14.9-9.9-23.9c0-9,3.5-17.5,9.9-23.9c6.4-6.4,14.9-9.9,23.9-9.9
			c9,0,17.5,3.5,23.9,9.9c6.4,6.4,9.9,14.9,9.9,23.9C287.3,564.9,283.8,573.4,277.4,579.8z"/>
		<path class="st1" d="M207.1,354.9c-11.6-11.6-27.1-18-43.5-18s-31.9,6.4-43.5,18C108.4,366.6,102,382,102,398.5
			c0,16.4,6.4,31.9,18.1,43.5c11.6,11.6,27.1,18.1,43.5,18.1s31.9-6.4,43.5-18C231.1,418,231.1,378.9,207.1,354.9z M187.5,422.4
			c-12.8,12.8-35.1,12.8-47.8,0c-6.4-6.4-9.9-14.9-9.9-23.9c0-9,3.5-17.5,9.9-23.9c6.4-6.4,14.9-9.9,23.9-9.9c9,0,17.5,3.5,23.9,9.9
			C200.7,387.7,200.7,409.2,187.5,422.4z"/>
		<path class="st1" d="M260.8,112.1c-15.6,0-29.9,5.7-40.2,16c-24,24-20.4,66.7,8.1,95.2c15.3,15.3,35.3,24.1,55,24.1
			c15.6,0,29.9-5.7,40.2-16c24-24,20.4-66.7-8.1-95.2C300.5,120.9,280.5,112.1,260.8,112.1z M304.3,211.8
			c-6.5,6.5-14.8,7.8-20.6,7.8c-12.4,0-25.2-5.8-35.4-16c-17.7-17.7-21.3-42.8-8.1-56c6.5-6.5,14.8-7.8,20.6-7.8
			c12.4,0,25.2,5.8,35.4,16C313.9,173.5,317.5,198.6,304.3,211.8z"/>
	</g>
</g>
</svg>
