<?xml version="1.0" encoding="UTF-8"?>
<svg id="Livello_1" data-name="Livello 1" xmlns="http://www.w3.org/2000/svg" viewBox="0 0 967.43 1159.94">
  <defs>
    <style>
      .cls-1 {
        stroke-width: 2px;
      }

      .cls-1, .cls-2 {
        fill: #f9ed3a;
        stroke: #f9ed3a;
        stroke-miterlimit: 10;
      }
    </style>
  </defs>
  <rect class="cls-2" x=".5" y="546.57" width="51.22" height="612.37"/>
  <rect class="cls-2" x=".5" y="597.78" width="966.43" height="62.35"/>
  <rect class="cls-2" x="902.36" y="546.57" width="64.58" height="612.37"/>
  <path class="cls-1" d="M577.24,524.3c-5.99-60.99-11.35-113.12-15.59-153.65-15.3-146.2-19.27-171.29-40.08-182.6-49.28-26.76-123.01,61.8-200.68,32.33-23.83-9.04-32.43-23.27-34.81-27.62-11.7-21.45-7.07-50.6,8.41-70.27,16.54-21,40.54-24.92,46.71-25.74-1.45-18.68-2.9-37.36-4.34-56.04l-149.31-6.31,.79,73.73c16.63-3.34,33.25-6.69,49.88-10.03-10.77,8.56-35.36,30.56-46.18,67.46-12.6,42.99-3.51,95.94,33.37,131.6,40.91,39.57,93.76,36.31,102.43,35.63,21.98,61.31,42.45,137.86,51.22,227.13,3.49,35.57,4.73,69.1,4.45,100.21-2.23,166.27-4.45,332.54-6.68,498.8h113.57c28.95-211.55,57.9-423.09,86.85-634.64Z"/>
  <circle class="cls-1" cx="440.29" cy="84.51" r="83.51"/>
  <path class="cls-1" d="M174.19,119.02c-17.07,3.71-34.14,7.42-51.22,11.13V34.4c17.07,2.97,34.14,5.94,51.22,8.91V119.02Z"/>
</svg>