<?xml version="1.0" encoding="utf-8"?>
<!-- Generator: Adobe Illustrator 26.5.0, SVG Export Plug-In . SVG Version: 6.00 Build 0)  -->
<svg version="1.1" id="watermill" xmlns="http://www.w3.org/2000/svg" xmlns:xlink="http://www.w3.org/1999/xlink" x="0px" y="0px"
	 viewBox="0 0 800 800" style="enable-background:new 0 0 800 800;" xml:space="preserve">
<style type="text/css">
	.st0{fill:#FFF92C;}
</style>
<path class="st0" d="M106.7,544l106.7-64l133.3,80l78.2-46.9c-16.4-8.1-31.7-17.9-44.9-30.3l75.4-75.4
	c12.3,10.4,27.7,17.1,44.7,18.5v66l13.3,8v-74c17-1.4,32.4-8.1,44.7-18.5l75.4,75.4c-21.6,20.2-48.2,34.6-77.5,42.7l57.4,34.5
	l37.2-22.4c58-43.8,96.1-112.7,96.1-191c0-132.5-107.5-240-240-240c-69.8,0-132,30.3-175.9,77.8L240,106.7l-186.7,160h53.3V544z
	 M642.9,473.4l-75.4-75.4c10.4-12.3,17.1-27.7,18.5-44.7h106.7C691,399.7,672.5,441.6,642.9,473.4z M692.7,340H586
	c-1.4-17-8.1-32.4-18.5-44.7l75.4-75.4C672.5,251.7,691,293.6,692.7,340z M513.3,160.7c46.4,1.7,88.3,20.2,120.1,49.8l-75.4,75.4
	c-12.3-10.4-27.7-17.1-44.7-18.5C513.3,267.3,513.3,160.7,513.3,160.7z M500,160.7v106.7c-17,1.4-32.4,8.1-44.7,18.5l-75.4-75.4
	C411.7,180.9,453.6,162.3,500,160.7z M370.5,219.9l75.4,75.4c-10.4,12.3-17.1,27.7-18.5,44.7H320.7
	C322.3,293.6,340.9,251.7,370.5,219.9z M427.3,353.3c1.4,17,8.1,32.4,18.5,44.7l-75.4,75.4c-29.6-31.8-48.1-73.7-49.8-120.1H427.3z
	 M480.1,533.3l-133.4,80l-133.3-80L80,613.3v80l133.3-80l133.3,80l133.4-80l133.2,80l133.3-80v-80l-133.3,80L480.1,533.3z"/>
</svg>
